<?xml version="1.0" encoding="UTF-8" standalone="no"?>
<svg
   width="177.2"
   height="27.059999"
   viewBox="0 0 177.2 27.059999"
   version="1.1"
   xml:space="preserve"
   style="clip-rule:evenodd;fill-rule:evenodd;stroke-linejoin:round;stroke-miterlimit:2"
   id="svg6"
   sodipodi:docname="cerit.svg"
   inkscape:version="1.1.1 (3bf5ae0d25, 2021-09-20)"
   xmlns:inkscape="http://www.inkscape.org/namespaces/inkscape"
   xmlns:sodipodi="http://sodipodi.sourceforge.net/DTD/sodipodi-0.dtd"
   xmlns="http://www.w3.org/2000/svg"
   xmlns:svg="http://www.w3.org/2000/svg"><defs
     id="defs10" /><sodipodi:namedview
     id="namedview8"
     pagecolor="#ffffff"
     bordercolor="#666666"
     borderopacity="1.0"
     inkscape:pageshadow="2"
     inkscape:pageopacity="0.0"
     inkscape:pagecheckerboard="0"
     showgrid="false"
     inkscape:zoom="7.2824859"
     inkscape:cx="72.159426"
     inkscape:cy="14.967417"
     inkscape:window-width="3840"
     inkscape:window-height="2059"
     inkscape:window-x="0"
     inkscape:window-y="32"
     inkscape:window-maximized="1"
     inkscape:current-layer="g829" /><g
     id="g829"
     transform="translate(0.06,-2.77)"><path
       d="M -0.06,3 V 29.6 H 4.08 V 3 Z m 4.29,0 2.59,26.6 h 1.4 L 5.64,3 Z m 6.73,0 -2.58,26.6 h 1.4 L 12.37,3 Z m 1.56,0 V 29.6 H 16.7 V 3 Z m 15.69,0 v 20.48 c 0,3.57 3.23,6.35 6.69,6.35 3.46,0 6.69,-2.78 6.69,-6.35 V 3 h -4.18 v 20.33 c 0,1.44 -1.29,2.47 -2.51,2.47 -1.22,0 -2.51,-1.03 -2.51,-2.47 V 3 Z m 26.26,0 v 26.6 h 4.18 V 3 Z m 4.33,0 3.95,26.6 H 64.2 L 60.25,3 Z m 5.55,0 v 26.6 h 4.18 V 3 Z M 82.4,28.12 V 29.6 H 93.76 V 28.12 H 90.15 V 4.48 h 3.61 V 3 H 82.4 v 1.48 h 3.57 v 23.64 z"
       style="fill:#ffffff;fill-rule:nonzero"
       id="path2" /><path
       d="m 115.44,2.77 c -3.02,0 -4.88,2.13 -4.88,5.58 0,3.46 1.84,5.58 4.84,5.58 2.61,0 4.3,-1.46 4.51,-3.99 h -2.26 c -0.17,1.3 -0.99,2.04 -2.25,2.04 -1.59,0 -2.57,-1.37 -2.57,-3.63 0,-2.25 1,-3.63 2.61,-3.63 1.25,0 2.08,0.75 2.21,1.99 h 2.22 c -0.1,-2.32 -1.79,-3.94 -4.43,-3.94 z M 129.13,4.9 V 3.01 h -7.38 v 10.68 h 7.51 V 11.8 h -5.31 V 9.19 h 4.83 V 7.31 h -4.83 V 4.9 Z m 2.11,-1.89 v 10.68 h 2.2 V 9.61 h 1.22 c 1.05,0 1.48,0.4 1.87,1.54 l 0.86,2.54 h 2.4 l -1.07,-2.96 c -0.49,-1.35 -0.85,-1.8 -1.6,-2.07 V 8.63 c 1.2,-0.33 1.95,-1.3 1.95,-2.61 0,-1.9 -1.22,-3.01 -3.9,-3.01 z m 2.2,1.78 h 1.44 c 1.26,0 1.97,0.45 1.97,1.49 0,0.97 -0.51,1.57 -1.85,1.57 h -1.56 z m 10,8.9 V 3.01 h -2.21 V 13.69 Z M 153.56,4.9 V 3.01 h -8.93 V 4.9 h 3.36 v 8.79 h 2.21 V 4.9 Z m 3.37,5.23 V 8.48 h -3.9 v 1.65 z m 5.27,-7.36 c -2.34,0 -3.95,1.29 -3.95,3.16 0,2.34 1.84,2.82 3.84,3.33 1.52,0.39 2.21,0.57 2.21,1.52 0,0.84 -0.72,1.36 -1.84,1.36 -1.37,0 -2.08,-0.67 -2.08,-1.96 h -2.28 c 0,2.43 1.67,3.75 4.33,3.75 2.48,0 4.16,-1.35 4.16,-3.38 0,-2.32 -1.74,-2.85 -3.75,-3.34 -1.68,-0.42 -2.32,-0.69 -2.32,-1.52 0,-0.69 0.66,-1.17 1.64,-1.17 1.21,0 1.86,0.65 1.86,1.76 h 2.23 c 0,-2.3 -1.38,-3.51 -4.05,-3.51 z m 10.47,0 c -3.03,0 -4.89,2.13 -4.89,5.58 0,3.46 1.85,5.58 4.85,5.58 2.6,0 4.3,-1.46 4.51,-3.99 h -2.26 c -0.17,1.3 -1,2.04 -2.25,2.04 -1.6,0 -2.57,-1.37 -2.57,-3.63 0,-2.25 0.99,-3.63 2.61,-3.63 1.24,0 2.07,0.75 2.21,1.99 h 2.21 c -0.1,-2.32 -1.78,-3.94 -4.42,-3.94 z"
       style="fill:#ffffff;fill-rule:nonzero"
       id="path4" /></g></svg>
